{
	"asset":{
		"generator":"Khronos glTF Blender I/O v4.0.44",
		"version":"2.0"
	},
	"scene":0,
	"scenes":[
		{
			"name":"Scene",
			"nodes":[
				0
			]
		}
	],
	"nodes":[
		{
			"mesh":0,
			"name":"Suzanne"
		}
	],
	"materials":[
		{
			"doubleSided":true,
			"name":"Material.001",
			"pbrMetallicRoughness":{
				"baseColorFactor":[
					0.8001260757446289,
					0.628943681716919,
					0.19927926361560822,
					1
				],
				"metallicFactor":0,
				"roughnessFactor":0.5
			}
		},
		{
			"doubleSided":true,
			"name":"Material.002",
			"pbrMetallicRoughness":{
				"baseColorFactor":[
					0.800000011920929,
					0.800000011920929,
					0.800000011920929,
					1
				],
				"metallicFactor":0,
				"roughnessFactor":0.5
			}
		},
		{
			"doubleSided":true,
			"name":"Material.003",
			"pbrMetallicRoughness":{
				"baseColorFactor":[
					0,
					0,
					0,
					1
				],
				"metallicFactor":0,
				"roughnessFactor":0.5
			}
		}
	],
	"meshes":[
		{
			"name":"Suzanne",
			"primitives":[
				{
					"attributes":{
						"POSITION":0,
						"NORMAL":1,
						"TEXCOORD_0":2
					},
					"indices":3,
					"material":0
				},
				{
					"attributes":{
						"POSITION":4,
						"NORMAL":5,
						"TEXCOORD_0":6
					},
					"indices":7,
					"material":1
				},
				{
					"attributes":{
						"POSITION":8,
						"NORMAL":9,
						"TEXCOORD_0":10
					},
					"indices":11,
					"material":2
				}
			]
		}
	],
	"accessors":[
		{
			"bufferView":0,
			"componentType":5126,
			"count":1786,
			"max":[
				1.3671875,
				0.984375,
				0.8515625
			],
			"min":[
				-1.3671875,
				-0.984375,
				-0.8515625
			],
			"type":"VEC3"
		},
		{
			"bufferView":1,
			"componentType":5126,
			"count":1786,
			"type":"VEC3"
		},
		{
			"bufferView":2,
			"componentType":5126,
			"count":1786,
			"type":"VEC2"
		},
		{
			"bufferView":3,
			"componentType":5123,
			"count":2658,
			"type":"SCALAR"
		},
		{
			"bufferView":4,
			"componentType":5126,
			"count":132,
			"max":[
				0.5625,
				0.453125,
				0.8203125
			],
			"min":[
				-0.578125,
				0.03125,
				0.671875
			],
			"type":"VEC3"
		},
		{
			"bufferView":5,
			"componentType":5126,
			"count":132,
			"type":"VEC3"
		},
		{
			"bufferView":6,
			"componentType":5126,
			"count":132,
			"type":"VEC2"
		},
		{
			"bufferView":7,
			"componentType":5123,
			"count":198,
			"type":"SCALAR"
		},
		{
			"bufferView":8,
			"componentType":5126,
			"count":48,
			"max":[
				0.4765625,
				0.375,
				0.828125
			],
			"min":[
				-0.4765625,
				0.1171875,
				0.7734375
			],
			"type":"VEC3"
		},
		{
			"bufferView":9,
			"componentType":5126,
			"count":48,
			"type":"VEC3"
		},
		{
			"bufferView":10,
			"componentType":5126,
			"count":48,
			"type":"VEC2"
		},
		{
			"bufferView":11,
			"componentType":5123,
			"count":48,
			"type":"SCALAR"
		}
	],
	"bufferViews":[
		{
			"buffer":0,
			"byteLength":21432,
			"byteOffset":0,
			"target":34962
		},
		{
			"buffer":0,
			"byteLength":21432,
			"byteOffset":21432,
			"target":34962
		},
		{
			"buffer":0,
			"byteLength":14288,
			"byteOffset":42864,
			"target":34962
		},
		{
			"buffer":0,
			"byteLength":5316,
			"byteOffset":57152,
			"target":34963
		},
		{
			"buffer":0,
			"byteLength":1584,
			"byteOffset":62468,
			"target":34962
		},
		{
			"buffer":0,
			"byteLength":1584,
			"byteOffset":64052,
			"target":34962
		},
		{
			"buffer":0,
			"byteLength":1056,
			"byteOffset":65636,
			"target":34962
		},
		{
			"buffer":0,
			"byteLength":396,
			"byteOffset":66692,
			"target":34963
		},
		{
			"buffer":0,
			"byteLength":576,
			"byteOffset":67088,
			"target":34962
		},
		{
			"buffer":0,
			"byteLength":576,
			"byteOffset":67664,
			"target":34962
		},
		{
			"buffer":0,
			"byteLength":384,
			"byteOffset":68240,
			"target":34962
		},
		{
			"buffer":0,
			"byteLength":96,
			"byteOffset":68624,
			"target":34963
		}
	],
	"buffers":[
		{
			"byteLength":68720,
			"uri":"test.bin"
		}
	]
}
